<svg xmlns="http://www.w3.org/2000/svg" width="236" height="35" viewBox="0 0 236 35"><g style="isolation:isolate"><path d="M60.88,5.44A17.21,17.21,0,0,0,36.54,29.78Z" fill="#5b9d80"/><path d="M60.89,5.46,49.1,17.22h0L36.53,29.76A17.2,17.2,0,1,0,60.89,5.46Z" fill="#4578b4"/><polygon points="86.47 0.4 86.47 17.61 102.4 34.82 102.4 0.4 86.47 0.4" fill="#5b9d80"/><g style="mix-blend-mode:multiply"><polygon points="70.55 0.4 70.55 34.82 86.47 34.82 86.47 17.61 70.55 0.4" fill="#4578b4"/></g><polygon points="86.47 34.82 102.4 34.82 86.47 17.61 86.47 34.82" fill="#345a6c"/><rect x="141.59" y="13.04" width="19.91" height="8.6" fill="#345a6c"/><path d="M107.61,17.34v0a17.19,17.19,0,0,0,5,12.17l0,0A17.14,17.14,0,0,1,107.61,17.34Z" fill="#5b9d80"/><path d="M137,5.2a17.2,17.2,0,0,0-24.3,0l12.17,12.17Z" fill="#5b9d80"/><g style="mix-blend-mode:multiply"><path d="M112.68,5.17l0,0a17.19,17.19,0,0,0-5,12.17v0A17.16,17.16,0,0,1,112.68,5.17Z" fill="#4578b4"/></g><g style="mix-blend-mode:multiply"><path d="M112.68,29.51a17.2,17.2,0,0,0,24.3,0L124.85,17.34Z" fill="#4578b4"/></g><path d="M112.68,5.17a17.14,17.14,0,0,0,0,24.34l12.17-12.17Z" fill="#345a6c"/><path d="M140.86,17.34v0a17.19,17.19,0,0,0,5,12.17l0,0A17.18,17.18,0,0,1,140.86,17.34Z" fill="#5b9d80"/><path d="M158.08,10.12a7.22,7.22,0,0,1,5.11,2.13l7.05-7a17.21,17.21,0,0,0-24.31,0L153,12.23A7.18,7.18,0,0,1,158.08,10.12Z" fill="#4578b4"/><g style="mix-blend-mode:multiply"><path d="M145.93,5.17l0,0a17.19,17.19,0,0,0-5,12.17v0A17.2,17.2,0,0,1,145.93,5.17Z" fill="#4578b4"/></g><path d="M163.19,22.43a7.19,7.19,0,0,1-10.2,0l-7.06,7.06a17.21,17.21,0,0,0,24.31,0Z" fill="#5b9d80"/><path d="M150.86,17.34A7.14,7.14,0,0,1,153,12.23l-7.06-7.06a17.14,17.14,0,0,0,0,24.34L153,22.45A7.14,7.14,0,0,1,150.86,17.34Z" fill="#345a6c"/><circle cx="191.85" cy="9.19" r="8.6" fill="#5b9d80"/><polygon points="191.48 0.59 175.55 0.59 191.48 17.79 191.48 0.59" fill="#5b9d80"/><g style="mix-blend-mode:multiply"><polygon points="191.48 17.79 191.48 35 207.4 35 191.48 17.79" fill="#4578b4"/></g><polygon points="175.55 0.59 175.55 35 191.48 35 191.48 17.79 175.55 0.59" fill="#345a6c"/><rect x="213.05" y="2.05" width="17.21" height="32.39" fill="#4578b4"/><polygon points="235.76 0 207.4 0 207.4 10.61 214.49 10.61 214.49 0.02 228.67 0.02 228.67 10.61 235.76 10.61 235.76 0" fill="#5b9d80"/><rect x="212.98" y="0.03" width="17.21" height="10.58" fill="#345a6c"/><path d="M17.47,10.42a7.17,7.17,0,0,1,5.1,2.12l7-7a17.2,17.2,0,0,0-24.3,0l7.06,7.07A7.17,7.17,0,0,1,17.47,10.42Z" fill="#5b9d80"/><path d="M22.57,22.74a7.19,7.19,0,0,1-10.2,0L5.31,29.81a17.2,17.2,0,0,0,24.3,0Z" fill="#4578b4"/><path d="M10.26,17.64a7.16,7.16,0,0,1,2.11-5.1L5.31,5.47a17.14,17.14,0,0,0,0,24.34l7.06-7.07A7.16,7.16,0,0,1,10.26,17.64Z" fill="#345a6c"/></g></svg>